<svg width="142" height="37" viewBox="0 0 142 37" fill="none" xmlns="http://www.w3.org/2000/svg">
<path d="M36.15 0H0V36.15H36.15V0Z" fill="black"/>
<path d="M18.6696 10.0908L14.9436 26.0598H8.85156C9.46075 23.3616 10.2947 20.719 11.3446 18.1599C12.5584 15.3788 13.9582 12.6827 15.5346 10.0898L18.6696 10.0908Z" fill="white"/>
<path d="M27.2985 10.0908L23.5725 26.0598H17.4805C18.0897 23.3616 18.9236 20.719 19.9735 18.1599C21.1873 15.3788 22.5871 12.6827 24.1635 10.0898L27.2985 10.0908Z" fill="white"/>
<path d="M47.5391 25.0002H50.0391L51.1591 21.4602H56.6191L57.7591 25.0002H60.5191L55.7991 10.7002H52.3191L47.5391 25.0002ZM53.8991 12.8802L55.9991 19.5202H51.7791L53.8991 12.8802ZM65.7791 25.1802C66.3369 25.1926 66.8924 25.1045 67.4191 24.9202V23.0002C67.0434 23.1462 66.6419 23.2142 66.2391 23.2002C65.4791 23.2002 65.0391 22.7802 65.0391 21.8602V16.3602H67.3391V14.5402H65.0391V12.2402H62.6191V14.5402H61.2191V16.3602H62.6191V22.0802C62.5722 22.504 62.6222 22.9329 62.7653 23.3345C62.9085 23.7361 63.141 24.0999 63.4454 24.3985C63.7497 24.6971 64.1179 24.9226 64.5222 25.058C64.9265 25.1934 65.3563 25.2352 65.7791 25.1802V25.1802ZM73.1591 25.1802C73.7169 25.1926 74.2724 25.1045 74.7991 24.9202V23.0002C74.4234 23.1462 74.0219 23.2142 73.6191 23.2002C72.8591 23.2002 72.4191 22.7802 72.4191 21.8602V16.3602H74.7191V14.5402H72.4191V12.2402H69.9991V14.5402H68.5991V16.3602H69.9991V22.0802C69.9522 22.504 70.0022 22.9329 70.1453 23.3345C70.2885 23.7361 70.521 24.0999 70.8253 24.3985C71.1297 24.6971 71.4979 24.9226 71.9022 25.058C72.3065 25.1934 72.7363 25.2352 73.1591 25.1802V25.1802ZM76.9791 25.0002H79.3991V19.5602C79.3991 17.3402 80.6791 16.6602 82.7991 16.6402V14.3802C82.0831 14.341 81.3725 14.5235 80.764 14.9029C80.1556 15.2823 79.679 15.8401 79.3991 16.5002V14.5402H76.9791V25.0002ZM86.1591 12.8202C86.3446 12.8255 86.5293 12.7939 86.7025 12.7272C86.8757 12.6605 87.0339 12.56 87.1679 12.4316C87.3019 12.3031 87.409 12.1494 87.483 11.9792C87.557 11.809 87.5965 11.6258 87.5991 11.4402C87.5991 11.2529 87.5616 11.0676 87.4888 10.895C87.416 10.7225 87.3092 10.5664 87.175 10.4358C87.0407 10.3053 86.8816 10.203 86.7071 10.1351C86.5326 10.0671 86.3463 10.0348 86.1591 10.0402C85.9719 10.0348 85.7855 10.0671 85.611 10.1351C85.4365 10.203 85.2774 10.3053 85.1432 10.4358C85.0089 10.5664 84.9022 10.7225 84.8293 10.895C84.7565 11.0676 84.719 11.2529 84.7191 11.4402C84.7216 11.6258 84.7611 11.809 84.8351 11.9792C84.9091 12.1494 85.0163 12.3031 85.1503 12.4316C85.2843 12.56 85.4424 12.6605 85.6156 12.7272C85.7888 12.7939 85.9735 12.8255 86.1591 12.8202V12.8202ZM84.9791 25.0002H87.3991V14.5402H84.9791V25.0002ZM96.1791 25.2002C98.8791 25.2002 100.819 23.1602 100.819 19.8002V19.6402C100.819 16.2602 98.7991 14.3202 96.1791 14.3202C95.4948 14.3216 94.8221 14.4967 94.2239 14.829C93.6258 15.1613 93.1218 15.64 92.7591 16.2202V9.7002H90.3391V25.0002H92.7591V23.3202C93.1 23.9187 93.6 24.4112 94.2037 24.743C94.8073 25.0748 95.491 25.2331 96.1791 25.2002V25.2002ZM95.5791 23.2802C93.8191 23.2802 92.6791 22.1802 92.6791 19.8402V19.6802C92.6791 17.3602 93.8791 16.2202 95.5591 16.2202C97.1391 16.2202 98.3391 17.3602 98.3391 19.6802V19.8402C98.3391 22.0802 97.3591 23.2802 95.5791 23.2802V23.2802ZM106.499 25.2002C107.17 25.2424 107.84 25.0916 108.428 24.7656C109.016 24.4395 109.499 23.9518 109.819 23.3602V25.0002H112.239V14.5402H109.819V20.7602C109.843 21.0895 109.797 21.4201 109.683 21.7302C109.57 22.0403 109.392 22.3228 109.161 22.5591C108.931 22.7954 108.653 22.9801 108.345 23.1009C108.038 23.2218 107.709 23.2761 107.379 23.2602C105.979 23.2602 105.319 22.5402 105.319 20.9602V14.5402H102.899V21.2402C102.899 24.0202 104.439 25.2002 106.499 25.2002ZM118.659 25.1802C119.217 25.1926 119.772 25.1045 120.299 24.9202V23.0002C119.923 23.1462 119.522 23.2142 119.119 23.2002C118.359 23.2002 117.919 22.7802 117.919 21.8602V16.3602H120.219V14.5402H117.919V12.2402H115.499V14.5402H114.099V16.3602H115.499V22.0802C115.452 22.504 115.502 22.9329 115.645 23.3345C115.788 23.7361 116.021 24.0999 116.325 24.3985C116.63 24.6971 116.998 24.9226 117.402 25.058C117.806 25.1934 118.236 25.2352 118.659 25.1802V25.1802ZM127.079 25.2002C129.759 25.2002 131.539 24.0002 131.879 21.8002H129.539C129.359 22.8202 128.599 23.4002 127.139 23.4002C125.339 23.4002 124.339 22.2802 124.259 20.3002H131.919V19.6002C131.919 15.8602 129.579 14.3202 126.979 14.3202C126.274 14.3029 125.574 14.4323 124.922 14.7002C124.27 14.9681 123.68 15.3687 123.191 15.8765C122.702 16.3843 122.324 16.9882 122.081 17.6499C121.838 18.3116 121.735 19.0166 121.779 19.7202V19.8802C121.734 20.5888 121.84 21.2988 122.091 21.9633C122.341 22.6277 122.729 23.2314 123.23 23.7344C123.731 24.2374 124.334 24.6282 124.997 24.8809C125.661 25.1336 126.37 25.2424 127.079 25.2002V25.2002ZM124.299 18.6802C124.321 17.9836 124.612 17.3228 125.113 16.8375C125.613 16.3522 126.282 16.0806 126.979 16.0802C128.479 16.0802 129.399 16.8802 129.519 18.6802H124.299ZM137.759 25.2002C140.439 25.2002 141.939 23.9802 141.939 21.8602C141.939 19.6402 140.479 19.0402 138.019 18.6602C136.359 18.3802 135.859 18.0802 135.859 17.3202C135.859 16.5802 136.479 16.0802 137.519 16.0802C137.734 16.0453 137.953 16.0543 138.164 16.1064C138.375 16.1585 138.574 16.2528 138.748 16.3836C138.921 16.5144 139.067 16.6789 139.175 16.8674C139.284 17.0558 139.353 17.2643 139.379 17.4802H141.619C141.359 15.1202 139.659 14.3202 137.519 14.3202C135.559 14.3202 133.599 15.3602 133.599 17.4602C133.599 19.4202 134.619 20.2002 137.379 20.6402C138.919 20.9002 139.619 21.2202 139.619 22.0802C139.619 22.9602 139.039 23.4202 137.739 23.4202C136.319 23.4202 135.779 22.8002 135.659 21.7402H133.379C133.479 23.9602 135.059 25.2002 137.759 25.2002Z" fill="black"/>
</svg>
