<?xml version="1.0" encoding="UTF-8"?>
<svg width="148px" height="33px" viewBox="0 0 148 33" version="1.1" xmlns="http://www.w3.org/2000/svg" xmlns:xlink="http://www.w3.org/1999/xlink">
    <title>svgexport-2 (1)</title>
    <g id="Page-1" stroke="none" stroke-width="1" fill="none" fill-rule="evenodd">
        <g id="svgexport-2-(1)" transform="translate(0.760598, -0.000000)" fill="#1D2D35" fill-rule="nonzero">
            <path d="M35.1394018,25.7 C34.2394018,25.7 33.5394018,25 33.4394018,24.1 C32.8394018,15.5 28.1394018,3.4 19.4394018,3.4 C12.2394018,3.4 6.83940184,8.4 3.33940184,18.3 C3.03940184,19.2 2.03940184,19.7 1.13940184,19.3 C0.239401842,19 -0.260598158,18 0.139401842,17.2 C4.13940184,5.8 10.6394018,0 19.4394018,0 C30.9394018,0 36.2394018,14.6 36.8394018,23.9 C36.9394018,24.8 36.2394018,25.7 35.2394018,25.7 L35.1394018,25.7 Z" id="Path"></path>
            <path d="M19.0394018,32 C13.2394018,32 7.63940184,29.5 3.73940184,25.1 C3.23940184,24.7 3.13940184,24 3.33940184,23.4 C4.43940184,20.5 7.33940184,13.8 11.0394018,13.7 C12.9394018,13.7 14.3394018,15.2 15.4394018,16.4 C15.7394018,16.8 16.2394018,17.3 16.6394018,17.6 C17.5394018,16.7 19.2394018,13.9 20.5394018,11 C20.9394018,10.1 21.9394018,9.8 22.8394018,10.2 C23.7394018,10.6 24.0394018,11.6 23.6394018,12.5 C19.6394018,21.2 17.5394018,21.2 16.7394018,21.2 C15.1394018,21.2 14.0394018,20 12.9394018,18.8 C12.4394018,18.3 11.4394018,17.2 11.0394018,17.2 C10.1394018,17.3 8.23940184,20.4 6.93940184,23.7 C10.2394018,27 14.7394018,28.8 19.3394018,28.7 C23.3394018,28.7 30.4394018,28 33.3394018,23.7 C32.5394018,15.1 27.8394018,3.5 19.3394018,3.5 C18.4394018,3.5 17.6394018,2.7 17.6394018,1.8 C17.6394018,0.9 18.4394018,3.55271368e-15 19.4394018,3.55271368e-15 C30.9394018,3.55271368e-15 36.2394018,14.6 36.8394018,23.9 C36.8394018,24.2 36.7394018,24.6 36.6394018,24.9 C33.9394018,29.5 27.8394018,32.1 19.4394018,32.1 C19.3394018,32 19.1394018,32 19.0394018,32 Z" id="Path"></path>
            <g id="Group" transform="translate(44.039402, 8.500000)">
                <path d="M7.10542736e-15,0 L6.1,0 C9.5,0 11.3,1.4 11.3,4 L11.3,4.1 C11.4,5.7 10.3,7.1 8.8,7.4 C10.7,7.6 12,9.2 11.9,11.1 L11.9,11.2 C11.9,14.1 10,15.6 6.4,15.6 L7.10542736e-15,15.6 L7.10542736e-15,0 Z M5.5,6.4 C7.2,6.4 7.9,5.8 7.9,4.4 L7.9,4.3 C7.9,3 7.2,2.4 5.5,2.4 L3.4,2.4 L3.4,6.4 L5.5,6.4 Z M5.9,13.1 C7.6,13.1 8.4,12.3 8.4,10.9 L8.4,10.8 C8.4,9.4 7.6,8.6 5.7,8.6 L3.5,8.6 L3.5,13.1 L5.9,13.1 Z" id="Shape"></path>
                <path d="M12.8,12.4 C12.8,9.8 15.2,8.8 18.7,8.8 L20,8.8 L20,8.3 C20,6.9 19.6,6.2 18.2,6.2 C17.3,6.1 16.4,6.7 16.3,7.7 L16.3,7.8 L13.3,7.8 C13.5,5.1 15.6,3.9 18.4,3.9 C21.2,3.9 23.2,5 23.2,8.1 L23.2,15.5 L20.1,15.5 L20.1,14.2 C19.3,15.3 18,15.9 16.7,15.8 C14.5,15.8 12.8,14.8 12.8,12.4 L12.8,12.4 Z M20,11.6 L20,10.6 L18.8,10.6 C17,10.6 15.9,11 15.9,12.2 C15.9,13 16.4,13.6 17.6,13.6 C18.9,13.6 20,12.8 20,11.6 Z" id="Shape"></path>
                <path d="M24.4,12 L27.3,12 C27.4,13 27.9,13.6 29.3,13.6 C30.7,13.6 31.1,13.1 31.1,12.4 C31.1,11.7 30.4,11.3 28.8,11 C25.8,10.5 24.6,9.7 24.6,7.4 C24.6,5.1 26.7,3.9 29.1,3.9 C31.6,3.9 33.5,4.8 33.8,7.4 L30.9,7.4 C30.7,6.5 30.2,6 29.1,6 C28,6 27.5,6.5 27.5,7.2 C27.5,7.9 28,8.2 29.7,8.4 C32.5,8.8 34.1,9.5 34.1,12 C34.1,14.5 32.3,15.8 29.3,15.8 C26.3,15.8 24.5,14.4 24.4,12 L24.4,12 Z" id="Path"></path>
                <path d="M35,10 L35,9.8 C34.8,6.7 37.2,4 40.4,3.9 L40.9,3.9 C43.8,3.9 46.5,5.6 46.5,9.7 L46.5,10.6 L38.2,10.6 C38.3,12.5 39.3,13.6 41,13.6 C42.5,13.6 43.2,13 43.4,12 L46.4,12 C46,14.5 44.1,15.8 41,15.8 C37.5,15.8 35,13.6 35,10 L35,10 Z M43.3,8.6 C43.2,6.9 42.3,6 40.8,6 C39.4,6 38.2,7.1 38.2,8.6 L43.3,8.6 Z" id="Shape"></path>
                <path d="M47.2,10 L47.2,9.8 C47.1,6.7 49.5,4 52.6,3.9 L53.1,3.9 C55.7,3.9 58.2,5 58.4,8.3 L55.4,8.3 C55.3,7.2 54.3,6.3 53.2,6.4 C51.6,6.4 50.5,7.6 50.5,9.8 L50.5,10 C50.5,12.3 51.5,13.5 53.3,13.5 C54.6,13.6 55.7,12.6 55.7,11.3 L58.5,11.3 C58.3,14 56.4,15.9 53.1,15.9 C49.8,15.9 47.2,13.7 47.2,10 L47.2,10 Z" id="Path"></path>
                <path d="M59.3,12.4 C59.3,9.8 61.7,8.8 65.2,8.8 L66.5,8.8 L66.5,8.3 C66.5,6.9 66.1,6.2 64.7,6.2 C63.8,6.1 62.9,6.7 62.8,7.7 L62.8,7.9 L59.8,7.9 C60,5.2 62.1,4 64.9,4 C67.7,4 69.7,5.1 69.7,8.2 L69.7,15.5 L66.6,15.5 L66.6,14.2 C65.8,15.3 64.5,15.9 63.2,15.8 C61,15.8 59.3,14.8 59.3,12.4 L59.3,12.4 Z M66.4,11.6 L66.4,10.6 L65.2,10.6 C63.4,10.6 62.3,11 62.3,12.2 C62.3,13 62.8,13.6 64,13.6 C65.4,13.6 66.4,12.8 66.4,11.6 Z" id="Shape"></path>
                <path d="M71.7,4.2 L74.9,4.2 L74.9,5.9 C75.6,4.6 76.9,3.9 78.4,3.9 C79.8,3.8 81.1,4.6 81.6,5.9 C82.5,4.6 83.9,3.9 85.4,3.9 C87.5,3.9 89.2,5.2 89.2,8.3 L89.2,15.5 L86.1,15.5 L86.1,8.6 C86.1,7.1 85.5,6.5 84.3,6.5 C83.1,6.4 82.1,7.4 82.1,8.5 L82.1,8.8 L82.1,15.5 L79,15.5 L79,8.6 C79,7.1 78.3,6.5 77.2,6.5 C76,6.4 75.1,7.4 75,8.5 L75,8.8 L75,15.5 L71.8,15.5 L71.7,4.2 Z" id="Path"></path>
                <path d="M91.3,4.2 L94.4,4.2 L94.4,6 C95.2,4.7 96.6,4 98,4 C100.8,4 103,6.1 103,9.8 L103,10 C103,13.8 100.9,15.9 98,15.9 C96.5,16 95.1,15.2 94.4,13.9 L94.4,19.5 L91.3,19.5 L91.3,4.2 Z M99.8,9.9 L99.8,9.7 C99.8,7.4 98.7,6.3 97.1,6.3 C95.5,6.3 94.3,7.4 94.3,9.7 L94.3,9.9 C94.3,12.2 95.4,13.3 97.1,13.3 C98.8,13.3 99.8,12.1 99.8,9.9 Z" id="Shape"></path>
            </g>
        </g>
    </g>
</svg>