<svg id="Layer_1" data-name="Layer 1" xmlns="http://www.w3.org/2000/svg" viewBox="0 0 500 69.35"><defs><style>.cls-1{fill-rule:evenodd;}</style></defs><path d="M95.88,234.67h69.35V165.33H95.88Zm34.67-65.88h.24A31.36,31.36,0,0,1,162,200a30.33,30.33,0,0,1-.24,3.81,31.48,31.48,0,1,1-31.21-35Z" transform="translate(-30 -165.33)"/><circle cx="31.55" cy="35.02" r="31.55"/><path d="M203,231.55h37.8V225H210.3V202.77h28.09v-6.58H210.3V175.73h30.52v-6.94H203Z" transform="translate(-30 -165.33)"/><path d="M267.52,204.51a60.41,60.41,0,0,1-11.1-3.82,5.92,5.92,0,0,1-2.43-4.5,6.67,6.67,0,0,1,2.43-4.86,12.58,12.58,0,0,1,6.94-2.08,11.68,11.68,0,0,1,12.13,9l6.59-1.74a18.34,18.34,0,0,0-6.24-10.05,19.13,19.13,0,0,0-12.48-3.82,17.06,17.06,0,0,0-12.14,3.82,11.52,11.52,0,0,0-4.51,9,10.74,10.74,0,0,0,3.47,8.32,35.23,35.23,0,0,0,12.48,5.55,38.78,38.78,0,0,1,11.1,4.16,6.33,6.33,0,0,1,2.77,5.55,7.23,7.23,0,0,1-2.77,5.55,17.4,17.4,0,0,1-8.32,2.08c-8,0-12.49-4.16-13.18-12.48l-6.93,1.38a20.1,20.1,0,0,0,5.89,12.83,19.54,19.54,0,0,0,14.22,4.86A19.75,19.75,0,0,0,279,229.13a12.92,12.92,0,0,0,4.51-9.71,11.12,11.12,0,0,0-3.47-9c-2.08-2.42-6.24-4.16-12.48-5.89Z" transform="translate(-30 -165.33)"/><path d="M310.51,204.51a60.31,60.31,0,0,1-11.09-3.82,5.92,5.92,0,0,1-2.43-4.5,6.63,6.63,0,0,1,2.43-4.86,12.55,12.55,0,0,1,6.93-2.08,11.69,11.69,0,0,1,12.14,9l6.59-1.74a18.35,18.35,0,0,0-6.25-10.05,19.1,19.1,0,0,0-12.48-3.82,17.05,17.05,0,0,0-12.13,3.82,11.52,11.52,0,0,0-4.51,9,10.74,10.74,0,0,0,3.47,8.32,35.23,35.23,0,0,0,12.48,5.55,38.78,38.78,0,0,1,11.1,4.16,6.33,6.33,0,0,1,2.77,5.55,7.29,7.29,0,0,1-2.77,5.55,17.41,17.41,0,0,1-8.33,2.08c-8,0-12.48-4.16-13.17-12.48l-6.94,1.38a20.11,20.11,0,0,0,5.9,12.83,23.66,23.66,0,0,0,27.74.7,12.91,12.91,0,0,0,4.5-9.71,11.08,11.08,0,0,0-3.46-9c-2.08-2.43-6.24-4.16-12.49-5.89Z" transform="translate(-30 -165.33)"/><path d="M353.51,182.66a20.49,20.49,0,0,0-15.6,6.94A26.23,26.23,0,0,0,331.66,208a27.6,27.6,0,0,0,6.25,18.38A22.64,22.64,0,0,0,366,229.82a23.1,23.1,0,0,0,7.63-8.67l-5.89-3.81a7.47,7.47,0,0,1-1.05,1.73A10.14,10.14,0,0,1,365,221.5a9.31,9.31,0,0,1-2.77,2.42,14.48,14.48,0,0,1-3.47,1.39,13.51,13.51,0,0,1-5.2.7,12.24,12.24,0,0,1-10.75-4.86A15.31,15.31,0,0,1,339,209.71h35.71v-2.08a27.74,27.74,0,0,0-5.89-18.38A18,18,0,0,0,353.51,182.66Zm-14.22,21.5a15.19,15.19,0,0,1,3.82-10.06,13.5,13.5,0,0,1,10.4-4.85,11.49,11.49,0,0,1,10.4,4.51,18.67,18.67,0,0,1,3.47,10.4Z" transform="translate(-30 -165.33)"/><path d="M403.09,183a19,19,0,0,0-7.63,1.73,16.68,16.68,0,0,0-5.54,4.16v-4.5H383v47.5h7.28V201.73a11.36,11.36,0,0,1,12.49-11.79c7.28,0,11.09,4.51,11.09,13.53v28.78h7.28V201a16.24,16.24,0,0,0-4.85-12.83,17.35,17.35,0,0,0-13.18-5.2Z" transform="translate(-30 -165.33)"/><path d="M439.5,172.61h-6.93V184.4h-6.94V191h6.59v27.4a13.87,13.87,0,0,0,3.12,10.4,11.91,11.91,0,0,0,9.71,3.47h3.81v-6.94H445.4c-2.43,0-3.82-.35-4.86-1.73a8.62,8.62,0,0,1-1-5.9v-27h11.79v-6.59H439.5Z" transform="translate(-30 -165.33)"/><path class="cls-1" d="M459.27,166.37h8.32v8.32h-8.32Z" transform="translate(-30 -165.33)"/><path class="cls-1" d="M460,184.4h7.28v47.5H460Z" transform="translate(-30 -165.33)"/><path d="M509.2,186.82A22.11,22.11,0,0,0,496,182.66a17.08,17.08,0,0,0-12.14,3.82A16.69,16.69,0,0,0,478,196.53l6.59,1.74A10.77,10.77,0,0,1,496,188.9,12.87,12.87,0,0,1,503.3,191a5.81,5.81,0,0,1,2.43,5.2,6.6,6.6,0,0,1-.69,2.42,3.46,3.46,0,0,1-1.39,1.74,12.27,12.27,0,0,1-3.12,1.38c-1.39.35-2.43.7-3.47,1a26,26,0,0,1-4.85,1,30.12,30.12,0,0,0-12.49,5.55,13.42,13.42,0,0,0-3.81,9.36,12.61,12.61,0,0,0,4.16,9.71,18.14,18.14,0,0,0,12.14,3.82,21.82,21.82,0,0,0,9.36-2.08,13,13,0,0,0,5.2-4.51v5.55h6.59V200a15.32,15.32,0,0,0-4.16-13.18Zm-2.78,29.82a8.54,8.54,0,0,1-3.47,6.94,14.78,14.78,0,0,1-10.05,2.77q-9.36,0-9.36-7.28a6.9,6.9,0,0,1,2.08-5.2,22.75,22.75,0,0,1,8.32-3.81c7.28-2.08,11.44-3.82,12.48-5.55Z" transform="translate(-30 -165.33)"/><path class="cls-1" d="M522.72,166H530v65.53h-7.28Z" transform="translate(-30 -165.33)"/></svg>