<svg xmlns="http://www.w3.org/2000/svg" xmlns:xlink="http://www.w3.org/1999/xlink" width="164" height="24" viewBox="0 0 164 24" version="1.1">
    <title>Group 19</title>
    <defs>
        <polygon id="path-1" points="0.0473484848 0.146322759 21.1037121 0.146322759 21.1037121 22 0.0473484848 22"/>
    </defs>
    <g id="Homepage-Select" stroke="none" stroke-width="1" fill="none" fill-rule="evenodd">
        <g id="Hivecell_Design_Homepage" transform="translate(-53.000000, -49.000000)">
            <g id="Group-19" transform="translate(53.000000, 49.500000)">
                <polygon id="Fill-1" fill="#000000" points="15.3030834 1.5 15.3030834 9.68998305 4.69691662 9.68998305 4.69691662 1.5 0 1.5 0 22.5 4.69691662 22.5 4.69691662 14.310017 15.3030834 14.310017 15.3030834 22.5 20 22.5 20 1.5"/>
                <polygon id="Fill-2" fill="#000000" points="24 22.5 29 22.5 29 1.5 24 1.5"/>
                <polygon id="Fill-3" fill="#000000" points="48.1627415 1.5 53 1.5 46.028459 22.5 38.971541 22.5 32 1.5 36.8374047 1.5 42.5000731 19.0798648"/>
                <polygon id="Fill-4" fill="#000000" points="76 22.5 57 22.5 57 1.5 75.8469659 1.5 75.8469659 6.14993505 61.7503542 6.14993505 61.7503542 9.68998305 75.6933021 9.68998305 75.6933021 14.310017 61.7503542 14.310017 61.7503542 17.850065 76 17.850065"/>
                <g id="Group-18" transform="translate(79.000000, 0.500000)">
                    <g id="Group-7">
                        <mask id="mask-2" fill="white">
                            <use xlink:href="#path-1"/>
                        </mask>
                        <g id="Clip-6"/>
                        <path d="M21.1037121,15.237109 C19.3640152,19.5488055 15.7364394,22.0000607 11.0181061,22.0000607 C4.73628788,22.0000607 0.0473484848,17.5996055 0.0473484848,11.0731917 C0.0473484848,4.54677793 4.88356061,0.146322759 10.8703788,0.146322759 C15.5299242,0.146322759 19.1868939,2.53855724 20.9270455,6.79108138 L16.6799242,8.59235034 C15.6185606,6.23000552 13.5838636,4.72384 10.8997727,4.72384 C7.21340909,4.72384 4.61840909,7.44076414 4.61840909,11.0731917 C4.61840909,14.8532469 7.21340909,17.4223917 10.8997727,17.4223917 C13.7605303,17.4223917 15.8543182,15.7981848 16.8868939,13.3765159 L21.1037121,15.237109 Z" id="Fill-5" fill="#000000" mask="url(#mask-2)"/>
                    </g>
                    <polygon id="Fill-8" fill="#000000" points="64.9421212 21.4092772 48.7219697 21.4092772 48.7219697 0.737015172 53.2930303 0.737015172 53.2930303 16.8319117 64.9421212 16.8319117"/>
                    <polygon id="Fill-10" fill="#000000" points="84.849803 21.4092772 68.629803 21.4092772 68.629803 0.737015172 73.2008636 0.737015172 73.2008636 16.8319117 84.849803 16.8319117"/>
                    <path d="M25.1358182,5.31436552 L43.898697,5.31436552 C43.7903636,3.73871034 43.5758182,2.21024138 43.384,0.737 L25.6503636,0.737 C25.458697,2.21024138 25.2441515,3.73871034 25.1358182,5.31436552" id="Fill-12" fill="#000000"/>
                    <path d="M25.1358182,16.8319117 C25.2441515,18.4075669 25.458697,19.9360359 25.6503636,21.4092772 L43.384,21.4092772 C43.5758182,19.9360359 43.7903636,18.4075669 43.898697,16.8319117 L25.1358182,16.8319117 Z" id="Fill-14" fill="#000000"/>
                    <path d="M24.9718636,8.79912 C24.9520152,9.55030621 24.9391364,10.3071062 24.9391364,11.0731614 C24.9391364,11.8390648 24.9520152,12.5960166 24.9718636,13.347051 L44.0626212,13.347051 C44.0824697,12.5960166 44.0953485,11.8390648 44.0953485,11.0731614 C44.0953485,10.3071062 44.0824697,9.55030621 44.0626212,8.79912 L24.9718636,8.79912 Z" id="Fill-16" fill="#000000"/>
                </g>
            </g>
        </g>
    </g>
</svg>