<svg fill="currentColor" viewBox="0 0 202 33" xmlns="http://www.w3.org/2000/svg"><clipPath id="a"><path d="M0 0h200.828v32H0z" transform="translate(.586 .5)"/></clipPath><g clip-path="url(#a)"><path d="M39.717 3.981l-.431-.616-8.002 5.053c-.865-.273-2.608-.685-4.367-.306-1.58.341-2.744 1.26-3.566 2.812-.437.829-.736 1.768-1.08 2.854a58.32 58.32 0 0 1-.512 1.559c-.125.356-.25.7-.38 1.038-6.575-1.29-10.06-6.656-9.342-14.455l.099-1.056-1.029.255c-.08.02-1.995.505-4.086 2.117C3.177 6.204.975 10.652.975 15.438c0 3.557 1.22 6.83 3.26 9.435l-.02.015c.137.177.29.344.443.503 2.814 3.287 6.987 5.375 11.642 5.375 3.985 0 7.583-1.394 10.132-3.927 2.064-2.05 3.59-4.742 4.535-8 .757-2.599 1.16-5.632 1.208-9.013l7.542-5.845zM5.737 24.33a13.812 13.812 0 0 1-2.506-4.422c2.462 1.861 5.854 2.914 9.581 2.914.189 0 .377-.003.565-.009 1.963-.057 3.77-.398 5.211-.948-1.633 2.3-3.514 3.628-5.725 4.074-4.06.823-6.24-.712-7.126-1.61zM7.942 4.436c.945-.73 1.855-1.2 2.513-1.48-.17 4.023.754 7.493 2.695 10.095 1.747 2.34 4.263 3.94 7.314 4.673-3.078.748-6.931.045-10.06-1.888-3.081-1.902-5.073-4.714-5.657-7.957a14.1 14.1 0 0 1 3.195-3.443zM3.68 9.826c.967 2.953 3.016 5.493 5.93 7.293 2.539 1.571 5.53 2.403 8.312 2.403.688 0 1.361-.051 2.014-.156-1.101 1.074-3.707 1.855-6.6 1.936-4.499.131-8.498-1.386-10.727-4.05a13.737 13.737 0 0 1 1.07-7.425zm21.69 15.942c-2.265 2.25-5.483 3.488-9.07 3.488a13.76 13.76 0 0 1-6.47-1.613c.278.021.559.036.846.036a12.5 12.5 0 0 0 2.483-.257c4.382-.886 7.565-4.565 10.021-11.583.198-.562.365-1.092.527-1.6.323-1.017.604-1.897.978-2.606.607-1.148 1.415-1.798 2.546-2.043 1.319-.284 2.68.003 3.434.222-.045 3.242-.431 6.14-1.149 8.609-.87 3.01-2.264 5.48-4.146 7.347zm34-.087h-3.09v-7.727h-8.062v7.727h-3.066V7.648h3.066v7.47h8.062v-7.47h3.09zm3.99-.955c-.927-.927-1.289-2.291-1.289-3.916v-8.268h3.04v7.882c0 .9.179 1.622.619 2.14.436.54 1.107.849 2.06.849a2.92 2.92 0 0 0 2.241-1.005c.491-.542.772-1.364.772-2.627v-7.239h3.013v13.135h-2.397v-2.575h-.335c-.694 1.881-2.396 2.91-4.301 2.91-1.463.003-2.624-.487-3.422-1.286zm33.23-7.314v8.268h-3.04v-7.882c0-.9-.18-1.621-.62-2.139-.436-.541-1.055-.85-1.932-.85-.9 0-1.675.363-2.24 1.057-.437.541-.643 1.289-.643 2.267v7.547h-3.013v-7.882c0-.9-.18-1.621-.62-2.139-.436-.541-1.055-.85-1.931-.85-.9 0-1.676.363-2.241 1.057-.437.541-.643 1.289-.643 2.267v7.547h-3.013V12.542h2.397v2.576h.335c.514-1.675 1.854-2.911 4.068-2.911 1.956 0 3.53 1.03 4.146 2.833.643-1.621 2.291-2.833 4.275-2.833 1.468 0 2.626.49 3.425 1.29.927.927 1.29 2.29 1.29 3.915zm-9.172-1.753v-.027zm31.81 1.753v8.268h-3.039v-7.882c0-.9-.18-1.621-.619-2.139-.437-.541-1.056-.85-1.933-.85-.9 0-1.675.363-2.24 1.057-.437.541-.644 1.289-.644 2.267v7.547h-3.012v-7.882c0-.9-.179-1.621-.619-2.139-.437-.541-1.056-.85-1.933-.85-.9 0-1.675.363-2.24 1.057-.437.541-.643 1.289-.643 2.267v7.547h-3.013V12.542h2.396v2.576h.335c.515-1.675 1.855-2.911 4.069-2.911 1.956 0 3.53 1.03 4.146 2.833.643-1.621 2.291-2.833 4.275-2.833 1.468 0 2.626.49 3.425 1.29.927.927 1.289 2.29 1.289 3.915zm-9.169-1.753v-.027zm11.744-7.212c0-1.134.799-1.905 1.906-1.905s1.882.771 1.882 1.905c0 1.083-.772 1.855-1.882 1.855s-1.906-.772-1.906-1.855zm.386 4.095h3.04v13.135h-3.04zm16.561.954c.927.928 1.289 2.292 1.289 3.916v8.268H137v-7.882c0-.9-.18-1.621-.619-2.139-.437-.541-1.107-.85-2.061-.85a2.92 2.92 0 0 0-2.241 1.006c-.491.541-.772 1.364-.772 2.626v7.24h-3.012v-13.14h2.396v2.576h.335c.694-1.882 2.396-2.911 4.302-2.911 1.465 0 2.623.49 3.422 1.29zm17.153.078h-3.04c1.029.85 1.598 2.01 1.598 3.347 0 1.57-.697 2.833-2.217 3.632-1.005.514-2.291.748-3.838.85-.978.077-1.753.101-2.24.206-.644.128-.955.362-.955.748 0 .206.102.413.285.541.257.18.592.18 1.055.18h4.586c1.469 0 2.369.206 3.195.798.694.515 1.236 1.442 1.236 2.732 0 2.808-2.19 5.022-7.162 5.022-2.525 0-4.301-.592-5.357-1.52-.877-.771-1.212-1.57-1.212-2.524 0-.928.67-1.906 2.061-2.14-1.184-.49-1.699-1.262-1.699-2.24 0-2.19 3.374-2.447 3.374-2.447v-.335c-2.396-.463-3.245-2.139-3.245-3.58 0-2.627 2.396-4.664 6.051-4.664 1.442 0 2.681.308 3.632.826.179-.413.49-1.005 1.083-1.493 1.235-1.03 2.809-.85 2.809-.85zm-11.386 12.002c-.051.101-.101.308-.101.67 0 1.62 1.083 2.653 4.274 2.653 2.603 0 3.967-.772 3.967-1.983 0-.772-.464-1.236-1.726-1.236h-4.765c-.85 0-1.287-.05-1.649-.104zm6.955-8.604c0-1.29-1.235-2.291-3.09-2.291-1.828 0-3.09 1.005-3.09 2.291 0 1.263 1.262 2.268 3.09 2.268 1.804 0 3.09-1.005 3.09-2.268zm8.939-1.621c.694-2.214 2.704-3.141 4.457-3.141 3.709 0 5.872 3.117 5.872 6.904 0 3.76-2.163 6.877-5.872 6.877-2.576 0-4.173-1.621-4.765-2.961h-.309v2.653h-2.42V6.646h3.04v8.705zm3.604 7.984c2.268 0 3.683-1.855 3.683-4.224 0-2.42-1.418-4.25-3.683-4.25-2.318 0-3.709 1.827-3.709 4.25 0 2.37 1.391 4.224 3.709 4.224zm8.783-14.888c0-1.134.799-1.905 1.906-1.905 1.106 0 1.881.771 1.881 1.905 0 1.083-.772 1.855-1.881 1.855-1.11 0-1.906-.772-1.906-1.855zm.386 4.095h3.039v13.135h-3.039zm13.213 2.68s-.335-.05-.67-.05c-1.056 0-1.933.284-2.525.876s-.876 1.493-.876 2.782v6.85h-3.04V12.542h2.809v2.603h.335c.335-2.214 1.52-2.755 3.324-2.755.284 0 .643.027.643.027v2.806zm11.23.129V6.646h3.039V25.68h-2.42v-2.653h-.308c-.593 1.34-2.19 2.961-4.766 2.961-3.709 0-5.872-3.117-5.872-6.877 0-3.787 2.163-6.904 5.872-6.904 1.75 0 3.761.927 4.455 3.144zm-3.605 7.984c2.318 0 3.709-1.855 3.709-4.224 0-2.42-1.391-4.25-3.709-4.25-2.268 0-3.682 1.827-3.682 4.25-.003 2.37 1.414 4.224 3.682 4.224z" fill="currentColor"/></g></svg>